<svg width="17" height="16" viewBox="0 0 17 16" fill="none" xmlns="http://www.w3.org/2000/svg">
<path d="M3.83337 9.99992C3.21212 9.99992 2.90149 9.99992 2.65646 9.89843C2.32976 9.7631 2.07019 9.50353 1.93487 9.17683C1.83337 8.9318 1.83337 8.62117 1.83337 7.99992V3.46659C1.83337 2.71985 1.83337 2.34648 1.9787 2.06126C2.10653 1.81038 2.3105 1.60641 2.56139 1.47858C2.8466 1.33325 3.21997 1.33325 3.96671 1.33325H8.50004C9.1213 1.33325 9.43192 1.33325 9.67695 1.43475C10.0037 1.57007 10.2632 1.82964 10.3985 2.15634C10.5 2.40137 10.5 2.712 10.5 3.33325M8.63337 14.6666H13.0334C13.7801 14.6666 14.1535 14.6666 14.4387 14.5213C14.6896 14.3934 14.8936 14.1895 15.0214 13.9386C15.1667 13.6534 15.1667 13.28 15.1667 12.5333V8.13325C15.1667 7.38652 15.1667 7.01315 15.0214 6.72793C14.8936 6.47705 14.6896 6.27307 14.4387 6.14524C14.1535 5.99992 13.7801 5.99992 13.0334 5.99992H8.63337C7.88664 5.99992 7.51327 5.99992 7.22805 6.14524C6.97717 6.27307 6.7732 6.47705 6.64537 6.72793C6.50004 7.01315 6.50004 7.38652 6.50004 8.13325V12.5333C6.50004 13.28 6.50004 13.6534 6.64537 13.9386C6.7732 14.1895 6.97717 14.3934 7.22805 14.5213C7.51327 14.6666 7.88664 14.6666 8.63337 14.6666Z" stroke="#273037" stroke-width="1.5" stroke-linecap="round" stroke-linejoin="round"/>
</svg>
