<svg width="32" height="32" viewBox="0 0 32 32" fill="none" xmlns="http://www.w3.org/2000/svg">
<rect width="32" height="32" rx="16" fill="#B51D5C" fill-opacity="0.1"/>
<path d="M18.6667 16.9163C21.0212 17.3792 22.6667 18.4365 22.6667 19.6667C22.6667 21.3235 19.6819 22.6667 16 22.6667C12.3181 22.6667 9.33334 21.3235 9.33334 19.6667C9.33334 18.4365 10.9788 17.3792 13.3333 16.9163M16 19.3333V14M16 14C17.1046 14 18 13.1046 18 12C18 10.8954 17.1046 10 16 10C14.8954 10 14 10.8954 14 12C14 13.1046 14.8954 14 16 14Z" stroke="#B51D5C" stroke-width="1.5" stroke-linecap="round" stroke-linejoin="round"/>
</svg>
