<svg width="32" height="32" viewBox="0 0 32 32" fill="none" xmlns="http://www.w3.org/2000/svg">
<rect width="32" height="32" rx="16" fill="#C86017" fill-opacity="0.1"/>
<path d="M13.5869 13.9022C14.0508 14.8686 14.6834 15.7744 15.4844 16.5755C16.2855 17.3765 17.1912 18.009 18.1577 18.473C18.2408 18.5129 18.2823 18.5329 18.3349 18.5482C18.5218 18.6027 18.7513 18.5636 18.9096 18.4502C18.9542 18.4183 18.9923 18.3802 19.0685 18.304C19.3016 18.071 19.4181 17.9544 19.5353 17.8782C19.9772 17.5909 20.5469 17.5909 20.9889 17.8782C21.106 17.9544 21.2226 18.071 21.4556 18.304L21.5856 18.4339C21.9398 18.7882 22.117 18.9654 22.2132 19.1556C22.4046 19.534 22.4046 19.9809 22.2132 20.3592C22.117 20.5495 21.9399 20.7266 21.5856 21.0809L21.4805 21.186C21.1274 21.5391 20.9508 21.7156 20.7108 21.8505C20.4445 22.0001 20.0308 22.1077 19.7253 22.1068C19.45 22.1059 19.2619 22.0525 18.8856 21.9457C16.8633 21.3718 14.9551 20.2888 13.3631 18.6968C11.7711 17.1048 10.6881 15.1966 10.1142 13.1743C10.0074 12.798 9.95395 12.6098 9.95313 12.3345C9.95222 12.0291 10.0598 11.6154 10.2094 11.3491C10.3442 11.109 10.5208 10.9325 10.8739 10.5794L10.979 10.4743C11.3332 10.12 11.5104 9.94289 11.7007 9.84666C12.079 9.65528 12.5259 9.65528 12.9042 9.84666C13.0945 9.94289 13.2716 10.12 13.6259 10.4743L13.7559 10.6042C13.9889 10.8373 14.1055 10.9539 14.1816 11.071C14.469 11.513 14.469 12.0827 14.1816 12.5246C14.1055 12.6418 13.9889 12.7583 13.7559 12.9914C13.6796 13.0676 13.6415 13.1057 13.6096 13.1503C13.4963 13.3085 13.4572 13.538 13.5117 13.725C13.527 13.7775 13.5469 13.8191 13.5869 13.9022Z" stroke="#C86017" stroke-width="1.5" stroke-linecap="round" stroke-linejoin="round"/>
</svg>
